<?xml version="1.0" encoding="UTF-8"?><svg id="Layer_1" xmlns="http://www.w3.org/2000/svg" width="434.13" height="99.02" viewBox="0 0 434.13 99.02"><defs><style>.cls-1{fill:#000;stroke-width:0px;}.cls-2{fill:none;stroke:#ff335b;stroke-linecap:round;stroke-linejoin:round;stroke-width:4px;}</style></defs><path class="cls-2" d="M93.65,28.65c-1.88,1.07-3.6,2.38-5.11,3.89-4.34,4.34-7.03,10.34-7.03,16.97s2.69,12.63,7.03,16.97c1.52,1.52,3.24,2.83,5.11,3.89"/><path class="cls-2" d="M97.02,41.03c-2.17,2.17-3.51,5.17-3.51,8.48s1.34,6.31,3.51,8.48"/><path class="cls-2" d="M5.37,70.37c1.88-1.07,3.6-2.38,5.11-3.89,4.34-4.34,7.03-10.34,7.03-16.97,0-6.63-2.69-12.63-7.03-16.97-1.52-1.52-3.24-2.83-5.11-3.89"/><path class="cls-2" d="M2,57.99c2.17-2.17,3.51-5.17,3.51-8.48,0-3.31-1.34-6.31-3.51-8.48"/><path class="cls-2" d="M28.65,5.37c1.07,1.88,2.38,3.6,3.89,5.11,4.34,4.34,10.34,7.03,16.97,7.03,6.63,0,12.63-2.69,16.97-7.03,1.52-1.52,2.83-3.24,3.89-5.11"/><path class="cls-2" d="M41.03,2c2.17,2.17,5.17,3.51,8.48,3.51,3.31,0,6.31-1.34,8.48-3.51"/><path class="cls-2" d="M70.37,93.65c-1.07-1.88-2.38-3.6-3.89-5.11-4.34-4.34-10.34-7.03-16.97-7.03-6.63,0-12.63,2.69-16.97,7.03-1.52,1.52-2.83,3.24-3.89,5.11"/><path class="cls-2" d="M57.99,97.02c-2.17-2.17-5.17-3.51-8.48-3.51-3.31,0-6.31,1.34-8.48,3.51"/><circle class="cls-2" cx="49.51" cy="49.51" r="16"/><path class="cls-1" d="M129.51,61.18V27.4h12.84c1.08,0,2.22.05,3.42.15,1.2.1,2.37.31,3.51.63,1.14.32,2.17.81,3.09,1.47.92.66,1.65,1.53,2.19,2.61s.81,2.44.81,4.08c0,1.28-.25,2.47-.75,3.57-.5,1.1-1.4,1.99-2.7,2.67-1.3.68-3.19,1.08-5.67,1.2v.18c2.84.04,5.03.44,6.57,1.2,1.54.76,2.61,1.75,3.21,2.97.6,1.22.9,2.57.9,4.05,0,1.68-.3,3.07-.9,4.17-.6,1.1-1.4,1.98-2.4,2.64-1,.66-2.12,1.14-3.36,1.44-1.24.3-2.51.5-3.81.6-1.3.1-2.51.15-3.63.15h-13.32ZM134.49,41.8h7.26c1.64,0,3.11-.1,4.41-.3,1.3-.2,2.33-.65,3.09-1.35.76-.7,1.14-1.79,1.14-3.27,0-1.68-.4-2.89-1.2-3.63s-1.85-1.21-3.15-1.41c-1.3-.2-2.71-.3-4.23-.3h-7.32v10.26ZM134.49,57.1h7.92c1.68,0,3.23-.11,4.65-.33,1.42-.22,2.55-.73,3.39-1.53.84-.8,1.26-2.02,1.26-3.66,0-1.76-.44-3.04-1.32-3.84-.88-.8-2.06-1.33-3.54-1.59-1.48-.26-3.12-.39-4.92-.39h-7.44v11.34Z"/><path class="cls-1" d="M172.08,61.78c-2.68,0-4.93-.54-6.75-1.62-1.82-1.08-3.17-2.57-4.05-4.47-.88-1.9-1.32-4.07-1.32-6.51s.44-4.61,1.32-6.51c.88-1.9,2.22-3.39,4.02-4.47,1.8-1.08,4.06-1.62,6.78-1.62,3.92,0,6.9,1.16,8.94,3.48,2.04,2.32,3.06,5.38,3.06,9.18,0,2.36-.43,4.49-1.29,6.39-.86,1.9-2.18,3.4-3.96,4.5-1.78,1.1-4.03,1.65-6.75,1.65ZM172.08,57.52c1.92,0,3.39-.42,4.41-1.26,1.02-.84,1.73-1.91,2.13-3.21.4-1.3.6-2.63.6-3.99s-.2-2.69-.6-3.99c-.4-1.3-1.11-2.37-2.13-3.21-1.02-.84-2.49-1.26-4.41-1.26s-3.41.42-4.47,1.26c-1.06.84-1.79,1.91-2.19,3.21-.4,1.3-.6,2.63-.6,3.99s.2,2.69.6,3.99c.4,1.3,1.13,2.37,2.19,3.21,1.06.84,2.55,1.26,4.47,1.26Z"/><path class="cls-1" d="M184.36,61.18l8.94-12.66-8.52-11.88h5.58l6.12,8.88,6.12-8.88h5.58l-8.52,11.88,9.06,12.66h-5.58l-6.66-9.54-6.6,9.54h-5.52Z"/><path class="cls-1" d="M226.67,62.02c-5.4,0-9.53-1.59-12.39-4.77-2.86-3.18-4.29-7.47-4.29-12.87,0-3.56.62-6.65,1.86-9.27,1.24-2.62,3.09-4.66,5.55-6.12,2.46-1.46,5.55-2.19,9.27-2.19,5.4,0,9.51,1.59,12.33,4.77,2.82,3.18,4.23,7.45,4.23,12.81,0,3.48-.63,6.55-1.89,9.21s-3.11,4.73-5.55,6.21c-2.44,1.48-5.48,2.22-9.12,2.22ZM226.61,57.22c2.6,0,4.76-.55,6.48-1.65,1.72-1.1,3.02-2.62,3.9-4.56.88-1.94,1.32-4.15,1.32-6.63s-.43-4.75-1.29-6.69c-.86-1.94-2.16-3.46-3.9-4.56-1.74-1.1-3.91-1.65-6.51-1.65-3.84,0-6.75,1.16-8.73,3.48-1.98,2.32-2.97,5.46-2.97,9.42,0,2.44.42,4.63,1.26,6.57.84,1.94,2.13,3.47,3.87,4.59,1.74,1.12,3.93,1.68,6.57,1.68Z"/><path class="cls-1" d="M245.94,40.24v-3.6h15.06v3.6h-15.06ZM249.48,61.3v-29.34c0-1.8.4-3.14,1.2-4.02.8-.88,2.06-1.32,3.78-1.32h6.84v3.96h-6.78v30.72h-5.04Z"/><path class="cls-1" d="M263.68,40.24v-3.6h15.06v3.6h-15.06ZM267.22,61.3v-29.34c0-1.8.4-3.14,1.2-4.02.8-.88,2.06-1.32,3.78-1.32h6.84v3.96h-6.78v30.72h-5.04Z"/><path class="cls-1" d="M284.64,33.22c-1.16,0-1.95-.3-2.37-.9-.42-.6-.63-1.3-.63-2.1s.21-1.43.63-2.01,1.21-.87,2.37-.87,1.93.29,2.31.87.57,1.25.57,2.01c0,.8-.19,1.5-.57,2.1-.38.6-1.15.9-2.31.9ZM282.06,61.18v-24.54h5.04v24.54h-5.04Z"/><path class="cls-1" d="M303.29,61.78c-2.28,0-4.34-.47-6.18-1.41-1.84-.94-3.3-2.34-4.38-4.2-1.08-1.86-1.62-4.11-1.62-6.75.08-2.64.65-4.92,1.71-6.84,1.06-1.92,2.51-3.4,4.35-4.44,1.84-1.04,3.92-1.56,6.24-1.56s4.31.44,5.97,1.32c1.66.88,2.97,2.03,3.93,3.45.96,1.42,1.54,2.95,1.74,4.59h-4.62c-.32-1.6-1.08-2.83-2.28-3.69s-2.72-1.29-4.56-1.29c-1.6,0-2.96.34-4.08,1.02-1.12.68-1.98,1.63-2.58,2.85-.6,1.22-.92,2.63-.96,4.23,0,2.52.66,4.54,1.98,6.06s3.18,2.28,5.58,2.28c1.72,0,3.22-.44,4.5-1.32,1.28-.88,2.08-2.16,2.4-3.84h4.62c-.2,1.68-.79,3.24-1.77,4.68-.98,1.44-2.31,2.61-3.99,3.51-1.68.9-3.68,1.35-6,1.35Z"/><path class="cls-1" d="M329.95,61.78c-2.76,0-5.02-.61-6.78-1.83-1.76-1.22-3.06-2.79-3.9-4.71-.84-1.92-1.28-3.92-1.32-6,0-2.4.47-4.56,1.41-6.48.94-1.92,2.3-3.44,4.08-4.56,1.78-1.12,3.91-1.68,6.39-1.68,2.16,0,4.08.47,5.76,1.41,1.68.94,3.02,2.26,4.02,3.96,1,1.7,1.54,3.73,1.62,6.09.04.12.06.35.06.69v.81h-18.54c0,2.56.63,4.55,1.89,5.97,1.26,1.42,3.01,2.13,5.25,2.13,1.68,0,3.11-.43,4.29-1.29,1.18-.86,1.89-2.01,2.13-3.45h4.92c-.24,1.68-.84,3.2-1.8,4.56-.96,1.36-2.24,2.43-3.84,3.21-1.6.78-3.48,1.17-5.64,1.17ZM322.94,47.02h13.26c0-.44-.1-1.01-.3-1.71-.2-.7-.54-1.41-1.02-2.13-.48-.72-1.14-1.32-1.98-1.8-.84-.48-1.9-.72-3.18-.72-1.2,0-2.22.21-3.06.63s-1.52.95-2.04,1.59c-.52.64-.91,1.33-1.17,2.07-.26.74-.43,1.43-.51,2.07Z"/><path class="cls-1" d="M379.33,27.4h5.34l-2.7,6.48-6.96,27.3h-8.1l-8.88-33.78h5.34l7.62,31.56,8.34-31.56ZM400.63,27.4h5.34l-9,33.78h-8.1l-6.9-27.3-2.64-6.48h5.34l8.22,31.56,7.74-31.56Z"/><path class="cls-1" d="M414.21,61.18h-4.98V27.4h4.98v33.78ZM413.49,27.4h8.94c3.76,0,6.65.92,8.67,2.76,2.02,1.84,3.03,4.6,3.03,8.28,0,3.32-1.04,5.9-3.12,7.74-2.08,1.84-4.94,2.76-8.58,2.76h-8.94v-3.78h8.28c2.4,0,4.3-.56,5.7-1.68,1.4-1.12,2.1-2.82,2.1-5.1s-.68-4.04-2.04-5.16c-1.36-1.12-3.28-1.68-5.76-1.68h-8.28v-4.14Z"/></svg>